<svg width="24" height="24" viewBox="0 0 24 24" fill="none" xmlns="http://www.w3.org/2000/svg">
<path d="M4.25895 16.5934C3.14076 14.7084 2.74916 12.48 3.15768 10.3267C3.56621 8.17341 4.74675 6.24331 6.47764 4.89884C8.20852 3.55437 10.3707 2.88801 12.5581 3.0249C14.7455 3.16178 16.8078 4.09249 18.3575 5.64225C19.9073 7.19202 20.838 9.25423 20.9749 11.4417C21.1118 13.6291 20.4455 15.7912 19.101 17.5221C17.7565 19.253 15.8264 20.4336 13.6732 20.8421C11.5199 21.2507 9.29149 20.8591 7.40649 19.7409L7.40651 19.7408L4.29808 20.6289C4.16948 20.6657 4.03338 20.6673 3.90391 20.6338C3.77443 20.6002 3.65628 20.5327 3.56171 20.4381C3.46713 20.3435 3.39956 20.2254 3.36601 20.0959C3.33246 19.9664 3.33415 19.8303 3.37089 19.7017L4.25902 16.5933L4.25895 16.5934Z" stroke="#1B1918" stroke-width="1.5" stroke-linecap="round" stroke-linejoin="round"/>
<path d="M14.2607 17.25C13.274 17.2514 12.2967 17.0581 11.3848 16.6811C10.4729 16.3042 9.64441 15.751 8.9467 15.0533C8.24899 14.3556 7.69582 13.5271 7.31887 12.6152C6.94192 11.7033 6.74861 10.726 6.75001 9.73934C6.75224 9.04482 7.02986 8.37953 7.52196 7.88943C8.01406 7.39932 8.68047 7.12441 9.375 7.125C9.48892 7.125 9.60081 7.15512 9.69934 7.21229C9.79787 7.26947 9.87953 7.35168 9.93605 7.45059L11.0321 9.36865C11.0982 9.48432 11.1323 9.61551 11.1309 9.74873C11.1294 9.88195 11.0926 10.0124 11.024 10.1266L9.375 11.25C9.82786 12.255 11.745 14.6004 12.75 15.0533L13.8734 12.976C13.9876 12.9074 14.118 12.8706 14.2513 12.8691C14.3845 12.8677 14.5157 12.9018 14.6313 12.9679L16.5494 14.064C16.6483 14.1205 16.7305 14.2021 16.7877 14.3007C16.8449 14.3992 16.875 14.5111 16.875 14.625C16.873 15.3187 16.5973 15.9837 16.1077 16.4752C15.6182 16.9667 14.9544 17.2452 14.2607 17.25Z" fill="#1B1918"/>
</svg>
